<svg xmlns="http://www.w3.org/2000/svg" width="21" height="21" viewBox="0 0 21 21"><defs><style>.a{fill:none;stroke:#707070;}.b{fill:#707070;}</style></defs><g transform="translate(-390.5 -504.5)"><rect class="a" width="20" height="20" rx="3" transform="translate(391 505)"/><path class="b" d="M469.945,482.087h-.055a1.456,1.456,0,0,1,.034-2.911h.049a1.456,1.456,0,1,1-.028,2.911Zm3.577-7.1a6.619,6.619,0,0,1-1.194,1.069l-.61.421a1.656,1.656,0,0,0-.613.746,1.543,1.543,0,0,0-.094.626v.1h-2.33l.007-.2a2.548,2.548,0,0,1,.384-1.681,9.91,9.91,0,0,1,1.739-1.4,1.829,1.829,0,0,0,.411-.421,1.481,1.481,0,0,0,.353-.863,1.683,1.683,0,0,0-.32-.995,1.332,1.332,0,0,0-1.153-.433,1.257,1.257,0,0,0-1.165.538,2.165,2.165,0,0,0-.353,1.163v.1h-2.4l0-.1a3.651,3.651,0,0,1,1.56-3.149,4.112,4.112,0,0,1,2.26-.593,4.88,4.88,0,0,1,2.916.839,2.911,2.911,0,0,1,1.18,2.512A2.874,2.874,0,0,1,473.523,474.987Z" transform="translate(-69.182 39.087)"/></g></svg>