<svg xmlns="http://www.w3.org/2000/svg" width="26" height="24" viewBox="0 0 26 24"><defs><style>.a{fill:#ff4300;}</style></defs><g transform="translate(0 -22.397)"><g transform="translate(7.113 31.605)"><g transform="translate(0 0)"><path class="a" d="M167.752,204.513,164.9,202.5a.782.782,0,0,0-1.231.638v1.23H149.976a.781.781,0,1,0,0,1.562h13.693v1.23a.782.782,0,0,0,1.231.638l2.852-2.011A.782.782,0,0,0,167.752,204.513Z" transform="translate(-149.195 -202.358)"/></g></g><g transform="translate(0 22.397)"><g transform="translate(0 0)"><path class="a" d="M21.767,39.345a.752.752,0,0,0-1.036.281,10.266,10.266,0,0,1-8.918,5.23,10.46,10.46,0,0,1,0-20.918,10.266,10.266,0,0,1,8.918,5.23.752.752,0,0,0,1.036.281.777.777,0,0,0,.277-1.053,11.779,11.779,0,0,0-10.231-6,12,12,0,0,0,0,24,11.779,11.779,0,0,0,10.232-6A.777.777,0,0,0,21.767,39.345Z" transform="translate(0 -22.397)"/></g></g></g></svg>