<?xml version="1.0" encoding="iso-8859-1"?>
<!-- Generator: Adobe Illustrator 19.0.0, SVG Export Plug-In . SVG Version: 6.00 Build 0)  -->
<svg version="1.1" id="Capa_1" xmlns="http://www.w3.org/2000/svg" xmlns:xlink="http://www.w3.org/1999/xlink" x="0px" y="0px"
	 viewBox="0 0 512.001 512.001" style="enable-background:new 0 0 512.001 512.001;" xml:space="preserve">
<g>
	<g>
		<g>
			<path d="M361.64,205.187l135.999-40c10.597-3.117,16.661-14.234,13.544-24.831s-14.233-16.659-24.831-13.544l-135.999,40
				c-10.597,3.117-16.661,14.234-13.544,24.831C339.922,202.226,351.027,208.307,361.64,205.187z"/>
			<path d="M275.195,119.429c-5.505-3.72-12.496-4.462-18.659-1.985L92.129,183.541H20c-11.046,0-20,8.954-20,20v104.918
				c0,11.046,8.954,20,20,20h55.999V376c0,11.046,8.954,20,20,20c11.046,0,20-8.954,20-20v-37.944l140.538,56.501
				c6.108,2.454,13.103,1.769,18.659-1.985c5.504-3.72,8.802-9.929,8.802-16.571V136
				C283.997,129.357,280.699,123.148,275.195,119.429z M76,288.459H40v-64.918h36V288.459z M243.997,346.403l-127.999-51.459
				v-77.889l127.999-51.459V346.403z"/>
			<path d="M355.996,236c-11.046,0-20,8.954-20,20c0,11.046,8.954,20,20,20h135.999c11.046,0,20-8.954,20-20s-8.954-20-20-20
				H355.996z"/>
			<path d="M497.638,346.812l-135.999-40c-10.599-3.115-21.714,2.947-24.831,13.544c-3.116,10.597,2.947,21.714,13.544,24.831
				l135.999,40c10.643,3.127,21.727-2.992,24.831-13.544C514.299,361.047,508.235,349.93,497.638,346.812z"/>
		</g>
	</g>
</g>
<g>
</g>
<g>
</g>
<g>
</g>
<g>
</g>
<g>
</g>
<g>
</g>
<g>
</g>
<g>
</g>
<g>
</g>
<g>
</g>
<g>
</g>
<g>
</g>
<g>
</g>
<g>
</g>
<g>
</g>
</svg>
