<?xml version="1.0"?>
<svg xmlns="http://www.w3.org/2000/svg" id="Layer_1" data-name="Layer 1" viewBox="0 0 512 512" width="512" height="512"><title>hospital</title><rect x="332" y="295" width="17" height="21"/><rect x="332" y="216" width="17" height="21"/><path d="M58,480h61V174H58ZM68,261a10.011,10.011,0,0,1,10-10H99a10.011,10.011,0,0,1,10,10v25a10.011,10.011,0,0,1-10,10H78a10.011,10.011,0,0,1-10-10Z"/><rect x="103" y="32" width="306" height="24"/><rect x="247" y="216" width="17" height="21"/><rect x="225" y="368" width="63" height="112"/><path d="M251,147v22h13V147a10.011,10.011,0,0,1,10-10h21V125H274a10.011,10.011,0,0,1-10-10V94H251v21a10.011,10.011,0,0,1-10,10H218v12h23A10.011,10.011,0,0,1,251,147Z"/><rect x="33" y="137" width="86" height="25"/><path d="M131,480h82V366a10.011,10.011,0,0,1,10-10h67a10.011,10.011,0,0,1,10,10V480h81V68H131ZM276,318a10.011,10.011,0,0,1-10,10H245a10.011,10.011,0,0,1-10-10V293a10.011,10.011,0,0,1,10-10h21a10.011,10.011,0,0,1,10,10Zm0-79a10.011,10.011,0,0,1-10,10H245a10.011,10.011,0,0,1-10-10V214a10.011,10.011,0,0,1,10-10h21a10.011,10.011,0,0,1,10,10Zm44-25a10.011,10.011,0,0,1,10-10h21a10.011,10.011,0,0,1,10,10v25a10.011,10.011,0,0,1-10,10H330a10.011,10.011,0,0,1-10-10Zm0,79a10.011,10.011,0,0,1,10-10h21a10.011,10.011,0,0,1,10,10v25a10.011,10.011,0,0,1-10,10H330a10.011,10.011,0,0,1-10-10ZM206,123a10.011,10.011,0,0,1,10-10h23V92a10.011,10.011,0,0,1,10-10h17a10.011,10.011,0,0,1,10,10v21h21a10.011,10.011,0,0,1,10,10v16a10.011,10.011,0,0,1-10,10H276v22a10.011,10.011,0,0,1-10,10H249a10.011,10.011,0,0,1-10-10V149H216a10.011,10.011,0,0,1-10-10Zm-55,91a10.011,10.011,0,0,1,10-10h21a10.011,10.011,0,0,1,10,10v25a10.011,10.011,0,0,1-10,10H161a10.011,10.011,0,0,1-10-10Zm0,79a10.011,10.011,0,0,1,10-10h21a10.011,10.011,0,0,1,10,10v25a10.011,10.011,0,0,1-10,10H161a10.011,10.011,0,0,1-10-10Z"/><rect x="413" y="263" width="17" height="21"/><rect x="247" y="295" width="17" height="21"/><rect x="80" y="263" width="17" height="21"/><rect x="393" y="188" width="86" height="25"/><path d="M393,480h61V225H393Zm8-219a10.011,10.011,0,0,1,10-10h21a10.011,10.011,0,0,1,10,10v25a10.011,10.011,0,0,1-10,10H411a10.011,10.011,0,0,1-10-10Z"/><rect x="163" y="295" width="17" height="21"/><rect x="163" y="216" width="17" height="21"/></svg>
