<svg xmlns="http://www.w3.org/2000/svg" width="1663.267" height="1096.467" viewBox="0 0 1663.267 1096.467">
  <g id="Group_24" data-name="Group 24" transform="translate(175.067 159.467)">
    <g id="Group_4" data-name="Group 4" transform="translate(-330.613 -219.161)" opacity="0.2">
      <g id="Group_2" data-name="Group 2" transform="translate(155.546 59.694)">
        <path id="Path_6" data-name="Path 6" d="M636.325,1032.2c-233.6-17.978-423.261-215.99-423.261-456.808s189.663-438.83,423.261-456.811V59.694C369.055,77.842,155.546,302.188,155.546,575.4s213.509,497.554,480.779,515.7Z" transform="translate(-155.546 -59.694)" fill="#fff"/>
        <path id="Path_7" data-name="Path 7" d="M419,59.744v58.933C654.7,137.468,840.573,335.1,840.573,575.341S654.7,1013.207,419,1032v58.933c269.375-18.97,479.091-242.961,479.091-515.594S688.374,78.716,419,59.744Z" transform="translate(133.309 -59.639)" fill="#fff"/>
      </g>
      <g id="Group_3" data-name="Group 3" transform="translate(263.532 161.181)">
        <path id="Path_8" data-name="Path 8" d="M265.013,470.063c20.581-170.464,169.51-304.627,349.7-304.627S943.829,299.6,964.407,470.063h57.81c-20.775-204.135-195.6-362.145-407.506-362.145S227.98,265.927,207.2,470.063Z" transform="translate(-206.476 -107.918)" fill="#fff"/>
        <path id="Path_9" data-name="Path 9" d="M965.8,315C949.608,489.673,798.54,628.948,615.094,628.948S280.576,489.673,264.386,315H206.858c16.307,204.136,193.105,371.465,408.236,371.465S1007.019,519.136,1023.326,315Z" transform="translate(-206.858 142.982)" fill="#fff"/>
      </g>
    </g>
    <g id="Group_5" data-name="Group 5" transform="translate(527.454 72.106)" opacity="0.2">
      <g id="Group_2-2" data-name="Group 2" transform="translate(155.546 59.694)">
        <path id="Path_6-2" data-name="Path 6" d="M530.884,818.92C348.516,804.885,200.449,650.3,200.449,462.3S348.516,119.707,530.884,105.67V59.694C322.229,73.862,155.546,249.006,155.546,462.3s166.683,388.434,375.338,402.6Z" transform="translate(-155.546 -59.694)" fill="#fff"/>
        <path id="Path_7-2" data-name="Path 7" d="M419,59.744v46.008c184.01,14.67,329.117,168.957,329.117,356.512S603.01,804.1,419,818.773v46.008C629.3,849.972,793.02,675.1,793.02,462.264S629.3,74.555,419,59.744Z" transform="translate(12.18 -59.662)" fill="#fff"/>
      </g>
      <g id="Group_3-2" data-name="Group 3" transform="translate(239.849 138.923)">
        <path id="Path_8-2" data-name="Path 8" d="M252.335,390.639C268.4,257.561,384.669,152.821,525.34,152.821s256.937,104.739,273,237.818h45.132c-16.219-159.366-152.7-282.721-318.134-282.721S223.424,231.274,207.2,390.639Z" transform="translate(-206.636 -107.918)" fill="#fff"/>
        <path id="Path_9-2" data-name="Path 9" d="M799.354,315C786.713,451.365,668.776,560.095,525.563,560.095S264.409,451.365,251.769,315H206.858c12.731,159.366,150.755,290,318.7,290s305.97-130.632,318.7-290Z" transform="translate(-206.858 42.54)" fill="#fff"/>
      </g>
    </g>
  </g>
</svg>
