<svg xmlns="http://www.w3.org/2000/svg" width="96" height="96" viewBox="0 0 96 96"><defs><style>.a{fill:#f15a24;}</style></defs><g transform="translate(-155.546 -59.694)"><path class="a" d="M323.228,209.391v7.322c-.072.057-.133.145-.2.153-3.706.481-4.823,1.761-4.831,5.55,0,.961,0,1.92,0,2.989l4.989-.8c0,2.426.019,4.689-.032,6.949,0,.217-.4.525-.677.621a6.6,6.6,0,0,0-4.539,6c.081,2.431,1.966,5.477,4.777,5.93a3.192,3.192,0,0,1,.493.195v7.182a12.286,12.286,0,0,1-9.48-4.03,12.912,12.912,0,0,1-3.443-9.005c0-5.668-.013-11.334,0-17,.018-6.4,6.08-12.291,12.49-12.165a2.441,2.441,0,0,1,.451.115" transform="translate(-124.495 -119.111)"/><path class="a" d="M390.249,288.427c8.04-.007,12.911,5.731,12.733,14.749a12.479,12.479,0,0,1-12.615,11.9v-6.69c1.4-1.078,2.824-1.795,3.711-2.931,2.749-3.512,1.157-8.2-3.088-9.637-.3-.1-.7-.475-.709-.73-.057-2.187-.033-4.375-.033-6.661" transform="translate(-188.834 -182.554)"/><path class="a" d="M394.287,221.5c-.191-2.747-1.772-4.148-4.475-4.4v-7.482c6.059-.515,12.669,5.9,12.213,11.883Z" transform="translate(-188.486 -119.792)"/><g transform="translate(213.789 85.854)"><path class="a" d="M453.555,193.718a3.527,3.527,0,0,0,2.523,3.268l1.09.3v-2.346l-.548-.2a1.186,1.186,0,0,1-.712-1.024,1.221,1.221,0,0,1,.743-1.024l.517-.2v-2.346l-1.09.3A3.527,3.527,0,0,0,453.555,193.718Z" transform="translate(-453.555 -190.146)"/><path class="a" d="M477.008,190.448l-1.008-.3v2.345l.464.2a1.114,1.114,0,0,1-.01,2.049l-.454.2v2.345l1.008-.3a3.426,3.426,0,0,0,0-6.536Z" transform="translate(-471.603 -190.144)"/></g><g transform="translate(155.546 59.694)"><path class="a" d="M200.3,150.213a42.642,42.642,0,0,1,0-85.037V59.694a48.118,48.118,0,0,0,0,96Z" transform="translate(-155.546 -59.694)"/><path class="a" d="M419,59.744v5.485a42.641,42.641,0,0,1,0,85.01v5.485a48.12,48.12,0,0,0,0-95.981Z" transform="translate(-367.593 -59.734)"/></g><g transform="translate(165.597 69.14)"><path class="a" d="M212.585,141.625c1.916-15.866,15.778-28.354,32.549-28.354s30.633,12.488,32.549,28.354h5.381c-1.934-19-18.206-33.707-37.93-33.707s-36,14.707-37.93,33.707Z" transform="translate(-207.136 -107.918)"/><path class="a" d="M277.5,315c-1.507,16.258-15.568,29.221-32.643,29.221S213.719,331.258,212.213,315h-5.355c1.518,19,17.974,34.575,38,34.575S281.335,334,282.853,315Z" transform="translate(-206.858 -272.372)"/></g></g></svg>