<svg xmlns="http://www.w3.org/2000/svg" width="50" height="49" viewBox="0 0 50 49"><defs><style>.a{fill:#f3d55b;}.b{fill:#68ad77;}.c{fill:#f5efca;}.d{fill:#7f6e5d;}</style></defs><g transform="translate(-157 -130)"><g transform="translate(157 129)"><path class="a" d="M43.75,4.687H6.25L0,17.187H50ZM13.2,8.16l-3.125,6.25a.788.788,0,0,1-.7.433.756.756,0,0,1-.348-.082.778.778,0,0,1-.348-1.047L11.8,7.465a.781.781,0,0,1,1.4.7Zm6.25,0-3.125,6.25a.788.788,0,0,1-.7.433.756.756,0,0,1-.348-.082.778.778,0,0,1-.348-1.047l3.125-6.25a.781.781,0,0,1,1.4.7Zm6.329,5.9a.781.781,0,0,1-1.562,0V7.812a.781.781,0,0,1,1.563,0Zm8.972.684a.78.78,0,0,1-1.062-.308l-3.418-6.25a.783.783,0,0,1,1.373-.751l3.418,6.25A.784.784,0,0,1,34.753,14.746Zm6.219.015a.73.73,0,0,1-.348.082.772.772,0,0,1-.7-.433L36.8,8.16a.781.781,0,1,1,1.4-.7l3.125,6.25A.781.781,0,0,1,40.973,14.761Z"/></g><path class="b" d="M6.286,1.455A1.513,1.513,0,0,1,7.85,0H42.255a1.509,1.509,0,0,1,1.564,1.455,1.509,1.509,0,0,1-1.564,1.455H7.85A1.513,1.513,0,0,1,6.286,1.455Z" transform="translate(156.714 130)"/><rect class="c" width="36" height="27" transform="translate(164 149)"/><path class="d" d="M0,20.312a6.238,6.238,0,0,0,4.688,6.03V46.875H1.563a1.562,1.562,0,1,0,0,3.125H48.438a1.562,1.562,0,1,0,0-3.125H45.313V26.343A6.238,6.238,0,0,0,50,20.312V18.75H0Zm31.25,6.25a6.248,6.248,0,0,0,6.25-6.25,6.238,6.238,0,0,0,4.688,6.03V46.875H18.75V26.562A6.248,6.248,0,0,0,25,20.312,6.252,6.252,0,0,0,31.25,26.562Zm-14.062-.22V46.875H7.813V26.343a6.238,6.238,0,0,0,4.688-6.03A6.238,6.238,0,0,0,17.188,26.343Z" transform="translate(157 129)"/><path class="b" d="M13.281,37.738v-3.6a1.545,1.545,0,0,1-.781-1.324,1.563,1.563,0,0,1,3.125,0,1.539,1.539,0,0,1-.781,1.324v3.6a1.539,1.539,0,0,1,.781,1.325,1.563,1.563,0,1,1-2.344-1.325Zm14.105-2.811-1.1-1.1L30.7,29.4l1.1,1.1Zm0,4.419-1.1-1.1L35.12,29.4l1.1,1.1Zm7.733-5.524,1.1,1.1-4.419,4.419-1.1-1.1Z" transform="translate(157 129)"/></g></svg>